<?xml version="1.0" encoding="UTF-8"?>
<svg width="551px" height="380px" viewBox="0 0 551 380" version="1.1" xmlns="http://www.w3.org/2000/svg" xmlns:xlink="http://www.w3.org/1999/xlink">
    <title>编组</title>
    <g id="页面-1" stroke="none" stroke-width="1" fill="none" fill-rule="evenodd">
        <g id="画板" transform="translate(22.000000, 57.000000)">
            <g id="编组" transform="translate(-22.000000, -57.000000)">
                <rect id="矩形" fill="#000000" opacity="0.81501552" x="0" y="0" width="551" height="380"></rect>
                <g id="神奇-海螺" transform="translate(369.216000, 139.304000)" fill="#FFFFFF" fill-rule="nonzero">
                    <path d="M21.504,11.584 L20.736,11.776 L16.576,11.776 L16.576,0 L10.688,0 L10.688,11.776 L2.496,11.776 L2.496,17.216 L17.6,17.216 C13.632,25.28 6.784,32.768 0,36.992 C0.96,38.016 2.624,40.704 3.264,42.24 C5.696,40.512 8.192,38.4 10.624,35.904 L10.624,58.752 L16.512,58.752 L16.512,32.128 C18.688,34.368 21.12,37.184 22.464,38.912 L25.984,34.048 C24.704,32.96 20.288,28.928 17.92,27.072 C20.736,22.976 23.168,18.432 24.896,13.76 L21.504,11.584 Z M44.992,35.648 L44.992,28.48 L53.248,28.48 L53.248,35.648 L44.992,35.648 Z M31.488,35.648 L31.488,28.48 L39.296,28.48 L39.296,35.648 L31.488,35.648 Z M39.296,16.32 L39.296,23.36 L31.488,23.36 L31.488,16.32 L39.296,16.32 Z M53.248,16.32 L53.248,23.36 L44.992,23.36 L44.992,16.32 L53.248,16.32 Z M44.992,10.88 L44.992,0.064 L39.296,0.064 L39.296,10.88 L26.048,10.88 L26.048,43.84 L31.488,43.84 L31.488,41.024 L39.296,41.024 L39.296,58.496 L44.992,58.496 L44.992,41.024 L53.248,41.024 L53.248,43.52 L58.944,43.52 L58.944,10.88 L44.992,10.88 Z" id="形状"></path>
                    <path d="M93.12,39.424 L93.12,46.976 L78.208,46.976 L78.208,39.424 L93.12,39.424 Z M98.752,51.648 L98.752,34.752 L72.512,34.752 L72.512,55.744 L78.208,55.744 L78.208,51.648 L98.752,51.648 Z M119.424,20.48 C113.6,17.984 103.872,14.144 95.936,11.52 L96.192,10.944 L120.256,10.944 L120.256,5.696 L97.536,5.696 C97.856,3.968 98.048,2.048 98.24,0 L92.096,0 C91.904,2.048 91.712,4.032 91.392,5.696 L69.504,5.696 L69.504,10.944 L89.6,10.944 C86.848,15.936 81.088,18.688 68.544,20.16 C69.504,21.248 70.848,23.424 71.232,24.832 C83.072,23.232 89.6,20.416 93.376,15.936 C101.056,18.56 109.888,22.272 115.008,24.768 L119.424,20.48 Z M123.456,24.832 L66.304,24.832 L66.304,30.144 L108.992,30.144 L108.992,51.968 C108.992,52.992 108.608,53.248 107.328,53.312 C106.112,53.376 101.568,53.376 97.216,53.184 C98.112,54.72 99.072,57.152 99.456,58.816 C105.152,58.816 109.184,58.752 111.744,57.856 C114.24,57.024 115.072,55.296 115.072,52.032 L115.072,30.144 L123.456,30.144 L123.456,24.832 Z" id="形状"></path>
                    <path d="M59.328,77.056 L59.328,71.68 L30.336,71.68 C31.232,69.568 32,67.456 32.64,65.28 L26.752,63.936 C24.704,71.424 20.928,78.72 16.32,83.328 C17.728,84.16 20.224,85.952 21.312,86.912 C23.68,84.288 25.92,80.896 27.84,77.056 L59.328,77.056 Z M18.56,71.424 C16.256,69.184 11.52,66.368 7.744,64.704 L4.224,68.864 C8.064,70.784 12.672,73.856 14.848,76.032 L18.56,71.424 Z M15.616,87.68 C13.312,85.568 8.512,83.008 4.672,81.408 L1.28,85.76 C5.12,87.488 9.792,90.368 12.032,92.544 L15.616,87.68 Z M7.808,122.24 C10.88,116.096 14.336,108.352 17.024,101.568 L12.416,97.92 C9.472,105.344 5.44,113.6 2.624,118.656 L7.808,122.24 Z M40.256,108.608 C40.576,106.112 40.896,103.232 41.216,100.224 L49.6,100.224 C49.408,103.552 49.152,106.368 48.896,108.608 L40.256,108.608 Z M36.096,100.224 C35.776,103.232 35.456,106.112 35.072,108.608 L27.264,108.608 C27.648,105.984 28.032,103.104 28.416,100.224 L36.096,100.224 Z M37.312,87.232 C37.12,89.664 36.928,92.224 36.672,94.784 L29.184,94.784 C29.504,92.224 29.824,89.664 30.144,87.232 L37.312,87.232 Z M41.728,94.784 C41.984,92.224 42.24,89.664 42.432,87.232 L50.304,87.232 C50.176,89.984 50.048,92.48 49.92,94.784 L41.728,94.784 Z M60.544,100.224 L60.544,94.784 L55.424,94.784 C55.552,91.776 55.744,88.384 55.872,84.672 C55.936,83.968 56,81.984 56,81.984 L25.216,81.984 C24.832,85.888 24.32,90.304 23.68,94.784 L17.28,94.784 L17.28,100.224 L22.912,100.224 C22.08,106.24 21.12,111.936 20.224,116.224 L25.92,116.928 L26.432,113.792 L48.064,113.792 C47.68,115.392 47.296,116.352 46.848,116.864 C46.208,117.696 45.632,117.824 44.544,117.824 C43.2,117.824 40.384,117.824 37.248,117.568 C38.144,118.912 38.72,121.088 38.848,122.496 C41.856,122.624 44.928,122.688 46.848,122.496 C48.896,122.24 50.432,121.728 51.712,119.872 C52.544,118.848 53.248,116.992 53.76,113.792 L60.096,113.792 L60.096,108.608 L54.464,108.608 C54.72,106.24 54.912,103.488 55.104,100.224 L60.544,100.224 Z" id="形状"></path>
                    <path d="M71.68,80.576 L75.328,80.576 L75.328,94.016 L71.68,94.016 L71.68,80.576 Z M83.392,94.016 L79.232,94.016 L79.232,80.576 L83.392,80.576 L83.392,94.016 Z M89.728,116.416 C89.344,112.448 87.872,106.368 86.08,101.76 L81.856,102.976 C82.624,105.024 83.328,107.328 83.84,109.696 L79.744,110.272 L79.744,98.944 L87.616,98.944 L87.616,75.648 L79.68,75.648 L79.68,64.448 L74.816,64.448 L74.816,75.648 L67.456,75.648 L67.456,101.376 L71.68,101.376 L71.68,98.944 L74.88,98.944 L74.88,111.04 C71.232,111.552 67.84,112.064 65.088,112.384 L65.92,117.824 C71.296,116.928 78.08,115.84 84.864,114.624 C84.992,115.776 85.12,116.8 85.184,117.76 L89.728,116.416 Z M95.04,109.312 C93.184,112.832 90.048,116.48 86.912,119.04 C88.128,119.808 90.176,121.472 91.072,122.304 C94.208,119.424 97.728,115.008 100.032,110.784 L95.04,109.312 Z M95.808,79.488 L103.168,79.488 L103.168,83.904 L95.808,83.904 L95.808,79.488 Z M95.808,71.104 L103.168,71.104 L103.168,75.392 L95.808,75.392 L95.808,71.104 Z M116.096,75.392 L108.288,75.392 L108.288,71.104 L116.096,71.104 L116.096,75.392 Z M116.096,83.904 L108.288,83.904 L108.288,79.488 L116.096,79.488 L116.096,83.904 Z M124.8,107.648 C123.072,104.64 119.104,100.288 115.776,97.152 L112,99.648 C112.96,100.608 113.984,101.696 115.008,102.784 L103.808,102.976 C108.288,99.648 113.088,95.488 116.928,91.84 L112.32,89.216 C110.144,91.712 107.136,94.656 104,97.408 C102.976,96.576 101.76,95.616 100.48,94.72 C102.592,92.736 104.832,90.368 106.944,88.128 L121.536,88.128 L121.536,66.816 L90.496,66.816 L90.496,88.128 L100.416,88.128 C99.328,89.536 98.048,91.008 96.832,92.352 C95.936,91.776 95.104,91.264 94.272,90.816 L90.816,94.016 C93.952,95.872 97.6,98.496 100.096,100.672 C99.008,101.568 97.984,102.4 96.96,103.104 C94.016,103.168 91.264,103.232 88.96,103.232 L89.344,108.224 L103.04,107.776 L103.04,122.816 L108.544,122.816 L108.544,107.584 C111.872,107.52 115.264,107.328 118.656,107.2 C119.488,108.352 120.256,109.44 120.768,110.4 L124.8,107.648 Z M111.744,111.296 C114.688,114.432 117.952,118.848 119.296,121.728 L123.648,119.168 C122.176,116.288 118.72,112.064 115.776,109.056 L111.744,111.296 Z" id="形状"></path>
                </g>
                <path d="M93,226.827841 L82.9520164,229 L77.6652085,196.834229 L77.4936036,196.834229 C76.9199482,198.307584 75.6713463,201.641384 73.7477979,206.835627 C71.8242495,212.029871 69.8744769,217.550682 67.89848,223.398059 L60.0498911,223.398059 C58.1060189,217.560707 56.1263342,211.971854 54.110837,206.6315 C52.0953398,201.291146 50.8705856,198.032258 50.4365743,196.854837 L50.2649694,196.854837 C50.0482916,197.99587 49.3457277,201.878836 48.1572777,208.503734 C46.9688276,215.128632 45.8243852,221.947168 44.7239503,228.959342 L35,226.8685 C37.2064425,215.744077 39.1022915,205.694502 40.6875472,196.719773 C42.2728028,187.745045 43.194585,182.56816 43.4528939,181.189118 L53.5520147,180 C53.8342532,180.926416 54.9923814,184.311271 57.0263995,190.154563 C59.0604175,195.997856 61.4373176,202.671024 64.1570996,210.174068 L64.4004934,210.174068 C66.5653049,204.21567 68.8639419,197.828131 71.2964046,191.011452 C73.7288673,184.194772 75.0352445,180.524289 75.2155362,180 L85.5108472,180.966332 C85.6282007,181.786925 86.3901789,186.635573 87.7967819,195.512276 C89.2033848,204.388979 90.9377909,214.8275 93,226.827841 Z" id="路径" fill="#FFFFFF" fill-rule="nonzero"></path>
                <path d="M126,209.712567 C126,215.456302 125.994134,219.886093 125.982401,223.001938 C125.970669,226.117783 125.964802,227.927743 125.964802,228.431818 C125.643684,228.465154 124.309627,228.568185 121.962633,228.740911 C119.615638,228.913637 117.125844,229 114.49325,229 C112.770653,229 110.800225,228.831762 108.581967,228.495285 C106.363709,228.158808 104.517518,227.631929 103.043394,226.914649 C101.148827,225.986362 99.6679524,224.751728 98.6007715,223.210748 C97.5335905,221.669768 97,219.864571 97,217.795155 C97,215.557593 97.5728865,213.639291 98.7186596,212.040247 C99.8644327,210.441204 101.644809,209.127533 104.059788,208.099237 C105.681131,207.405402 107.687801,206.857001 110.079797,206.454035 C112.471794,206.051069 114.635648,205.771374 116.57136,205.614949 C116.501286,204.343041 116.204516,203.300549 115.681051,202.487473 C115.157586,201.674397 114.268563,201.044212 113.013983,200.59692 C112.197846,200.29616 111.287608,200.083229 110.283269,199.958127 C109.27893,199.833024 108.085021,199.770473 106.701543,199.770473 C105.464963,199.770473 104.402764,199.793918 103.514947,199.840809 C102.62713,199.887699 101.672131,199.936055 100.649952,199.985876 L101.463356,192.119791 C101.887335,192.106603 102.548216,192.083341 103.445998,192.050004 C104.34378,192.016668 105.615718,192 107.261813,192 C110.746545,192 113.644648,192.340323 115.956123,193.02097 C118.267599,193.701617 120.215043,194.818383 121.798457,196.371269 C123.264224,197.813155 124.330923,199.557358 124.998554,201.603878 C125.666185,203.650397 126,206.353294 126,209.712567 Z M117.055448,216.183473 C117.055448,215.447144 117.055448,214.578202 117.055448,213.576648 C117.055448,212.575093 117.049502,211.525183 117.037608,210.426917 C116.425587,210.453659 115.358968,210.590576 113.837753,210.837667 C112.316538,211.084759 110.95757,211.492579 109.760849,212.061128 C108.937641,212.442114 108.18298,213.033834 107.496866,213.836286 C106.810752,214.638739 106.467695,215.624999 106.467695,216.795066 C106.467695,218.105806 106.770492,219.149031 107.376085,219.924741 C107.981678,220.700451 108.769688,221.290522 109.740116,221.694954 C110.445998,221.992416 111.242205,222.2113 112.128737,222.351605 C113.015268,222.491911 113.96866,222.562064 114.98891,222.562064 C115.249277,222.562064 115.555689,222.555378 115.908149,222.542007 C116.260608,222.528636 116.637094,222.515356 117.037608,222.502168 C117.037608,222.216429 117.040582,221.50849 117.046528,220.378353 C117.052475,219.248215 117.055448,217.849922 117.055448,216.183473 Z" id="形状" fill="#FFFFFF" fill-rule="nonzero"></path>
                <path d="M163,192.030158 C163,193.019699 162.986738,195.234836 162.960213,198.675568 C162.933689,202.1163 162.920427,205.535007 162.920427,208.931691 C162.920427,211.11475 162.930778,213.559361 162.95148,216.265521 C162.972182,218.971682 162.982533,221.836857 162.982533,224.861045 C162.982533,228.700043 162.334546,231.857748 161.038574,234.334161 C159.742601,236.810574 157.864952,238.747345 155.405628,240.144475 C152.644833,241.648709 149.559195,242.678918 146.148714,243.235102 C142.738234,243.791285 139.464338,244.044153 136.327026,243.993708 L135.347404,236.203671 C137.876597,236.12654 140.179848,235.977762 142.257157,235.757336 C144.334465,235.53691 146.101731,235.175016 147.558952,234.671655 C149.659227,233.914968 151.140789,232.941053 152.003639,231.749911 C152.866489,230.558769 153.30972,229.130477 153.333333,227.465035 C153.147339,227.465035 152.956979,227.465035 152.762251,227.465035 C152.567524,227.465035 152.368268,227.465035 152.164483,227.465035 C149.978166,227.465035 147.636665,227.139239 145.139981,226.487648 C142.643296,225.836056 140.558628,224.89102 138.885978,223.65254 C136.742358,222.120888 135.05879,220.236208 133.835274,217.998499 C132.611758,215.760789 132,212.913252 132,209.455888 C132,206.201038 132.814896,203.311829 134.444687,200.78826 C136.074478,198.264691 138.372149,196.261024 141.3377,194.77726 C143.322497,193.774924 145.581029,193.061463 148.113295,192.636878 C150.64556,192.212293 153.809639,192 157.605531,192 C158.372796,192 159.251173,192.005026 160.24066,192.015079 C161.230147,192.025132 162.149927,192.030158 163,192.030158 Z M153.958758,210.290437 C153.958758,209.030389 153.955766,207.498098 153.949782,205.693564 C153.943798,203.889031 153.928999,202.027197 153.905386,200.108064 C153.781174,200.108064 153.65114,200.108064 153.515284,200.108064 C153.379427,200.108064 153.249393,200.108064 153.125182,200.108064 C151.816432,200.108064 150.650493,200.208042 149.627365,200.407997 C148.604237,200.607953 147.505742,201.013164 146.331878,201.623631 C144.801229,202.400423 143.620006,203.553365 142.78821,205.082458 C141.956413,206.61155 141.540514,208.334749 141.540514,210.252054 C141.540514,212.189099 141.915494,213.867976 142.665454,215.288683 C143.415413,216.70939 144.511887,217.852188 145.954876,218.717077 C146.922691,219.294279 148.027576,219.745458 149.269529,220.070614 C150.511483,220.39577 151.804949,220.558348 153.149927,220.558348 C153.305839,220.558348 153.443474,220.558348 153.562834,220.558348 C153.682193,220.558348 153.802361,220.558348 153.923338,220.558348 C153.923338,220.277607 153.929241,219.056672 153.941048,216.895545 C153.952855,214.734419 153.958758,212.532716 153.958758,210.290437 Z" id="形状" fill="#FFFFFF" fill-rule="nonzero"></path>
                <polygon id="路径" fill="#FFFFFF" fill-rule="nonzero" points="176 188 172 188 172 177 176 177"></polygon>
                <polygon id="路径" fill="#FFFFFF" fill-rule="nonzero" points="182 188 178 188 178 177 182 177"></polygon>
                <path d="M181.838916,228 L172.161576,228 C172.173399,226.87116 172.192775,224.471133 172.219704,220.799921 C172.246634,217.128708 172.260099,213.690693 172.260099,210.485876 C172.260099,207.776512 172.252627,204.937769 172.237685,201.969644 C172.222742,199.001519 172.197373,195.665114 172.161576,191.96043 L181.838916,191.96043 C181.814943,195.3098 181.789491,198.30919 181.762562,200.958598 C181.735632,203.608007 181.722167,206.619718 181.722167,209.993732 C181.722167,215.356918 181.741626,219.436411 181.780542,222.232212 C181.819458,225.028013 181.838916,226.950609 181.838916,228 Z" id="路径" fill="#FFFFFF" fill-rule="nonzero"></path>
                <path d="M215,220.349621 L214.042807,229 C213.800199,229 213.53467,229 213.246221,229 C212.957773,229 212.631675,229 212.267928,229 C208.639067,229 205.473742,228.631482 202.771955,227.894445 C200.070168,227.157408 197.66229,226.084196 195.548323,224.67481 C193.168248,223.104448 191.315175,221.089353 189.989105,218.629527 C188.663035,216.169701 188,213.422589 188,210.38819 C188,207.450823 188.631509,204.830206 189.894528,202.526338 C191.157546,200.22247 192.848191,198.314167 194.966461,196.801429 C197.119815,195.216195 199.656029,194.019649 202.575105,193.211789 C205.49418,192.40393 208.725121,192 212.267928,192 C212.647231,192 212.928977,192 213.113167,192 C213.297358,192 213.490898,192 213.693789,192 L214.551688,200.649821 C214.33953,200.649821 214.132006,200.649821 213.929115,200.649821 C213.726225,200.649821 213.536904,200.649821 213.361154,200.649821 C211.796282,200.649821 210.248704,200.75652 208.718419,200.969917 C207.188134,201.183313 205.689541,201.571443 204.222639,202.134305 C202.354259,202.839555 200.86063,203.927638 199.741753,205.398552 C198.622876,206.869466 198.063438,208.524313 198.063438,210.363095 C198.063438,212.437952 198.599542,214.164366 199.671751,215.542337 C200.74396,216.920308 202.169241,217.987385 203.947595,218.743568 C205.247683,219.316096 206.767956,219.726904 208.508412,219.975991 C210.248869,220.225077 211.782215,220.349621 213.108451,220.349621 C213.447374,220.349621 213.796641,220.349621 214.15625,220.349621 C214.515859,220.349621 214.797109,220.349621 215,220.349621 Z" id="路径" fill="#FFFFFF" fill-rule="nonzero"></path>
                <path d="M235.981952,191 C238.362046,191 240.539301,191.401275 242.513716,192.203825 C244.48813,193.006375 246.261006,194.246093 247.832343,195.922981 C249.557822,197.773999 250.850468,199.872594 251.710281,202.218764 C252.570094,204.564933 253,207.158679 253,210 C253,212.753335 252.543428,215.371102 251.630283,217.8533 C250.717139,220.335499 249.350186,222.505973 247.529425,224.364722 C246.011745,225.910183 244.282689,227.069094 242.342257,227.841457 C240.401825,228.613819 238.289365,229 236.004878,229 C233.790958,229 231.690855,228.614647 229.704571,227.843942 C227.718286,227.073236 225.970857,225.930431 224.462282,224.415526 C222.718918,222.644394 221.372696,220.498309 220.423618,217.977272 C219.474539,215.456235 219,212.783707 219,209.959688 C219,207.168803 219.407631,204.636537 220.222892,202.362891 C221.038153,200.089245 222.293564,198.025072 223.989125,196.170372 C225.536398,194.480232 227.332769,193.195968 229.378239,192.317581 C231.423709,191.439194 233.624946,191 235.981952,191 Z M230.969501,202 L231,219 L245,210 L230.969501,202 Z" id="形状结合" fill="#FFFFFF" fill-rule="nonzero"></path>
                <path d="M290,228 L280.398001,228 C280.410057,227.259028 280.429444,225.458776 280.456162,222.599243 C280.482881,219.739711 280.49624,217.472348 280.49624,215.797156 C280.49624,214.623306 280.491026,212.960261 280.4806,210.808019 C280.470173,208.655778 280.454533,207.026045 280.43368,205.918821 C280.398164,203.758849 280.069968,202.186539 279.449091,201.201889 C278.828215,200.21724 277.739359,199.724915 276.182525,199.724915 C275.135295,199.724915 273.91187,200.024359 272.51225,200.623247 C271.112631,201.222134 269.786731,201.932002 268.534552,202.75285 C268.534552,202.900456 268.526406,204.223475 268.510114,206.721908 C268.493822,209.220341 268.485676,211.314332 268.485676,213.00388 C268.485676,215.563969 268.504982,218.623192 268.543593,222.18155 C268.582205,225.739907 268.60151,227.679391 268.60151,228 L259,228 C259,227.448596 259.016292,225.797146 259.048875,223.045649 C259.081458,220.294151 259.09775,216.283591 259.09775,211.013968 C259.09775,207.960634 259.090337,204.862209 259.075512,201.718692 C259.060687,198.575176 259.035516,195.313501 259,191.933669 L268.417251,191.933669 L268.385971,195.265281 L268.430936,195.335955 C270.413961,194.102106 272.508666,193.070985 274.71505,192.242591 C276.921435,191.414197 278.869188,191 280.558311,191 C283.44357,191 285.732553,192.00922 287.425261,194.027659 C289.117968,196.046099 289.964321,198.755173 289.964321,202.154883 C289.964321,205.021593 289.950962,207.400488 289.924244,209.291567 C289.897525,211.182646 289.884166,212.77419 289.884166,214.066197 C289.884166,216.260769 289.903472,218.955672 289.942083,222.150906 C289.980694,225.346139 290,227.295838 290,228 Z" id="路径" fill="#FFFFFF" fill-rule="nonzero"></path>
                <path d="M323,220.349621 L322.042807,229 C321.800199,229 321.53467,229 321.246221,229 C320.957773,229 320.631675,229 320.267928,229 C316.639067,229 313.473742,228.631482 310.771955,227.894445 C308.070168,227.157408 305.66229,226.084196 303.548323,224.67481 C301.168248,223.104448 299.315175,221.089353 297.989105,218.629527 C296.663035,216.169701 296,213.422589 296,210.38819 C296,207.450823 296.631509,204.830206 297.894528,202.526338 C299.157546,200.22247 300.848191,198.314167 302.966461,196.801429 C305.119815,195.216195 307.656029,194.019649 310.575105,193.211789 C313.49418,192.40393 316.725121,192 320.267928,192 C320.647231,192 320.928977,192 321.113167,192 C321.297358,192 321.490898,192 321.693789,192 L322.551688,200.649821 C322.33953,200.649821 322.132006,200.649821 321.929115,200.649821 C321.726225,200.649821 321.536904,200.649821 321.361154,200.649821 C319.796282,200.649821 318.248704,200.75652 316.718419,200.969917 C315.188134,201.183313 313.689541,201.571443 312.222639,202.134305 C310.354259,202.839555 308.86063,203.927638 307.741753,205.398552 C306.622876,206.869466 306.063438,208.524313 306.063438,210.363095 C306.063438,212.437952 306.599542,214.164366 307.671751,215.542337 C308.74396,216.920308 310.169241,217.987385 311.947595,218.743568 C313.247683,219.316096 314.767956,219.726904 316.508412,219.975991 C318.248869,220.225077 319.782215,220.349621 321.108451,220.349621 C321.447374,220.349621 321.796641,220.349621 322.15625,220.349621 C322.515859,220.349621 322.797109,220.349621 323,220.349621 Z" id="路径" fill="#FFFFFF" fill-rule="nonzero"></path>
                <path d="M360,228 L350.398001,228 C350.410057,227.025296 350.429444,224.748245 350.456162,221.168848 C350.482881,217.589451 350.49624,215.160726 350.49624,213.882674 C350.49624,212.704013 350.488827,211.345967 350.474002,209.808535 C350.459176,208.271103 350.445736,206.94668 350.43368,205.835266 C350.398164,203.565143 350.060926,201.961389 349.421965,201.024002 C348.783005,200.086616 347.703192,199.617923 346.182525,199.617923 C345.182866,199.617923 343.989174,199.908431 342.601447,200.489448 C341.213721,201.070465 339.852224,201.793088 338.516957,202.657316 L338.60151,228 L329,228 C329.01173,226.291496 329.030954,222.869038 329.057673,217.732627 C329.084391,212.596216 329.09775,206.948343 329.09775,200.789009 C329.09775,197.576327 329.090337,193.870381 329.075512,189.671172 C329.060687,185.471962 329.035516,180.914905 329,176 L338.60151,176 L338.503271,195.079894 L338.548237,195.130883 C340.494768,193.923033 342.569923,192.909256 344.7737,192.089551 C346.977478,191.269846 348.905682,190.859993 350.558311,190.859993 C353.44357,190.859993 355.732553,191.873032 357.425261,193.899109 C359.117968,195.925186 359.964321,198.644512 359.964321,202.057086 C359.964321,204.934644 359.950962,207.32254 359.924244,209.220775 C359.897525,211.11901 359.884166,212.716576 359.884166,214.013472 C359.884166,216.216348 359.900458,218.771714 359.933041,221.67957 C359.965625,224.587426 359.987944,226.694236 360,228 Z" id="路径" fill="#FFFFFF" fill-rule="nonzero"></path>
            </g>
        </g>
    </g>
</svg>